<?xml version="1.0" standalone="no"?>
<!DOCTYPE svg PUBLIC "-//W3C//DTD SVG 20010904//EN"
 "http://www.w3.org/TR/2001/REC-SVG-20010904/DTD/svg10.dtd">
<svg version="1.0" xmlns="http://www.w3.org/2000/svg"
 width="820.000000pt" height="878.000000pt" viewBox="0 0 820.000000 878.000000"
 preserveAspectRatio="xMidYMid meet">
<metadata>
Created by potrace 1.16, written by Peter Selinger 2001-2019
</metadata>
<g transform="translate(0.000000,878.000000) scale(0.100000,-0.100000)"
fill="#000000" stroke="none">
<path d="M854 8366 c-61 -20 -129 -72 -169 -130 -30 -45 -43 -80 -60 -166 -3
-20 -29 -38 -140 -95 -74 -38 -155 -84 -180 -102 l-45 -33 0 -73 c1 -90 24
-295 146 -1277 l98 -785 -40 -59 -39 -60 2 -102 c8 -350 185 -722 451 -946
186 -157 367 -246 626 -308 65 -16 122 -34 126 -41 23 -36 -50 -282 -135 -454
-132 -268 -231 -363 -835 -804 -301 -220 -464 -413 -531 -631 -21 -67 -24 -94
-23 -245 2 -507 152 -983 409 -1302 241 -299 605 -474 1105 -529 195 -22 709
-28 1125 -15 668 22 838 49 1110 181 157 76 275 161 405 290 167 166 288 344
398 585 132 289 213 606 277 1084 13 101 29 189 35 196 6 7 50 27 100 44 201
72 337 210 401 406 34 103 32 261 -4 363 -34 98 -79 170 -152 244 -125 127
-219 169 -395 176 -63 2 -142 -1 -175 -7 -191 -35 -381 -212 -451 -421 -15
-43 -19 -84 -19 -185 1 -121 3 -135 31 -206 58 -144 138 -238 274 -320 36 -21
90 -46 119 -55 l54 -16 -6 -126 c-11 -221 -82 -586 -164 -835 -81 -248 -242
-539 -397 -719 -129 -149 -383 -313 -591 -381 -176 -58 -294 -71 -792 -88
-374 -12 -1047 -7 -1183 10 -307 39 -551 122 -720 247 -283 208 -460 512 -544
934 -63 312 -69 507 -22 656 53 165 170 296 446 499 89 66 234 173 322 238
431 320 629 614 719 1067 12 63 27 121 32 128 5 6 21 12 34 12 43 0 225 40
303 67 514 175 886 678 894 1209 1 100 1 100 -36 157 l-38 57 95 762 c109 870
142 1155 151 1284 l7 91 -44 30 c-24 16 -106 63 -182 103 -141 75 -157 89
-157 143 0 12 -11 45 -24 74 -89 191 -306 248 -471 124 -74 -56 -108 -124
-113 -227 -4 -72 -1 -88 23 -143 47 -103 139 -168 254 -178 71 -7 120 7 196
53 l60 36 128 -64 c127 -62 128 -63 123 -93 -11 -61 -47 -348 -146 -1145
l-101 -815 -45 -44 c-60 -59 -72 -85 -84 -178 -25 -184 -33 -223 -67 -308 -53
-131 -108 -218 -198 -310 -126 -129 -241 -198 -420 -251 -78 -23 -109 -27
-230 -27 -144 -1 -200 8 -323 54 -215 79 -386 225 -491 421 -68 124 -94 213
-111 375 -12 109 -45 193 -86 220 -45 29 -49 52 -179 1088 -41 330 -85 676
-96 769 l-22 169 27 22 c14 11 71 43 125 69 l98 49 59 -36 c104 -64 197 -72
303 -26 59 25 124 91 154 157 33 72 31 180 -6 254 -66 134 -230 208 -363 164z"/>
<path d="M6560 6009 c-697 -37 -1356 -433 -1631 -982 -22 -43 -45 -77 -51 -75
-6 2 -19 25 -29 51 -45 113 -182 302 -314 431 -255 250 -592 429 -985 525
-123 30 -287 57 -295 49 -3 -3 -8 -61 -11 -129 -6 -117 -5 -129 21 -204 76
-227 -10 -643 -194 -936 -213 -337 -529 -576 -910 -687 l-135 -39 -22 -84
c-34 -126 -80 -251 -139 -375 l-52 -111 47 -134 c274 -775 886 -1535 1789
-2224 111 -84 234 -165 252 -165 25 0 200 189 264 284 141 212 265 549 320
866 9 52 19 105 21 117 5 18 -6 27 -83 67 -256 132 -460 381 -535 653 -19 67
-22 105 -22 263 0 159 3 196 22 265 26 93 94 239 151 323 132 195 348 345 587
409 86 23 120 26 254 27 130 1 169 -3 244 -22 286 -72 543 -276 670 -530 64
-127 97 -244 106 -367 23 -347 -72 -609 -302 -831 -129 -124 -273 -216 -393
-249 -33 -10 -66 -22 -72 -29 -7 -6 -27 -81 -43 -166 -114 -577 -272 -955
-555 -1326 -41 -54 -75 -105 -75 -114 0 -16 24 -30 269 -159 l154 -81 196 104
c375 199 802 475 1136 735 293 228 660 573 896 842 756 860 1078 1770 964
2725 -50 413 -209 741 -475 979 -253 225 -602 327 -1040 304z"/>
</g>
</svg>
