<?xml version="1.0" standalone="no"?>
<!DOCTYPE svg PUBLIC "-//W3C//DTD SVG 20010904//EN"
 "http://www.w3.org/TR/2001/REC-SVG-20010904/DTD/svg10.dtd">
<svg version="1.0" xmlns="http://www.w3.org/2000/svg"
 width="225.000000pt" height="225.000000pt" viewBox="0 0 225.000000 225.000000"
 preserveAspectRatio="xMidYMid meet">
<metadata>
Created by potrace 1.16, written by Peter Selinger 2001-2019
</metadata>
<g transform="translate(0.000000,225.000000) scale(0.100000,-0.100000)"
fill="#000000" stroke="none">
<path d="M17 2132 c-16 -17 -17 -101 -17 -1003 0 -875 2 -987 16 -1007 18 -27
55 -29 77 -4 15 16 17 49 17 260 l0 242 179 0 178 0 5 -78 c8 -103 37 -170 99
-226 87 -79 60 -76 790 -76 627 0 650 1 703 20 36 14 69 36 99 69 88 94 82 39
82 796 0 623 -1 673 -18 708 -24 52 -92 124 -142 150 -40 22 -45 22 -704 25
-750 3 -722 5 -809 -73 -64 -58 -94 -125 -100 -227 l-5 -78 -178 0 -179 0 0
243 c0 224 -2 245 -18 260 -24 22 -55 21 -75 -1z m1558 -507 c24 -23 25 -30
25 -145 l0 -120 122 0 c99 0 125 -3 140 -17 16 -15 18 -35 18 -216 0 -172 -2
-203 -17 -219 -14 -16 -33 -18 -140 -18 l-123 0 0 -120 c0 -115 -1 -122 -25
-145 -24 -25 -26 -25 -212 -25 -247 0 -233 -10 -233 161 l0 129 -127 0 c-104
0 -130 3 -145 17 -16 15 -18 35 -18 216 0 172 2 203 17 219 14 16 33 18 145
18 l128 0 0 129 c0 171 -14 161 233 161 186 0 188 0 212 -25z m-1105 -500 l0
-395 -180 0 -180 0 0 395 0 395 180 0 180 0 0 -395z"/>
</g>
</svg>
